<svg width="20.000000" height="20.000000" viewBox="0 0 20 20" fill="none" xmlns="http://www.w3.org/2000/svg" xmlns:xlink="http://www.w3.org/1999/xlink">
	<desc>
			Created with Pixso.
	</desc>
	<defs>
		<clipPath id="clip1_56">
			<rect id="ph:caret-down-bold" width="20.000000" height="20.000000" fill="white" fill-opacity="0"/>
		</clipPath>
	</defs>
	<rect id="ph:caret-down-bold" width="20.000000" height="20.000000" fill="#FFFFFF" fill-opacity="0"/>
	<g clip-path="url(#clip1_56)">
		<path id="Vector" d="M16.9133 8.16333L10.6633 14.4133C10.5762 14.5007 10.4727 14.5701 10.3588 14.6173C10.2448 14.6647 10.1226 14.6891 9.99927 14.6891C9.87585 14.6891 9.75366 14.6647 9.63971 14.6173C9.52576 14.5701 9.4223 14.5007 9.33521 14.4133L3.08521 8.16333C2.90906 7.98718 2.81012 7.74829 2.81012 7.49927C2.81012 7.25012 2.90906 7.01123 3.08521 6.83521C3.26129 6.65906 3.50018 6.56006 3.74927 6.56006C3.99829 6.56006 4.23718 6.65906 4.41333 6.83521L10 12.4219L15.5867 6.83435C15.7629 6.65833 16.0017 6.55933 16.2508 6.55933C16.4999 6.55933 16.7388 6.65833 16.9149 6.83435C17.091 7.0105 17.1899 7.24939 17.1899 7.49841C17.1899 7.74756 17.091 7.98645 16.9149 8.16248L16.9133 8.16333Z" fill="#141414" fill-opacity="0.800000" fill-rule="nonzero"/>
	</g>
</svg>
